<?xml version="1.0" encoding="UTF-8"?>
<svg version="1.1" xmlns="http://www.w3.org/2000/svg" width="1543" height="1957">
<path d="M0 0 C0.75879801 0.00006401 1.51759602 0.00012801 2.29938791 0.00019396 C3.17403373 -0.00215894 4.04867955 -0.00451183 4.94982978 -0.00693603 C5.92433427 -0.00442715 6.89883875 -0.00191828 7.90287367 0.00066663 C8.93329305 -0.00061146 9.96371243 -0.00188954 11.02535664 -0.00320636 C14.5315991 -0.00630655 18.03779781 -0.00218343 21.54403887 0.0018173 C24.07264877 0.00107865 26.60125858 -0.00009887 29.1298681 -0.0016792 C34.67257738 -0.00412117 40.21527298 -0.00341069 45.75798153 -0.00001806 C54.05562152 0.00504103 62.35325413 0.00435862 70.65089511 0.00251537 C84.78913623 -0.00045709 98.92737323 0.00133017 113.06561385 0.00565965 C127.40244129 0.01003066 141.7392666 0.01223306 156.07609473 0.01175744 C156.98005574 0.01172875 157.88401676 0.01170006 158.81537053 0.0116705 C163.42429223 0.01151413 168.03321392 0.01132218 172.64213562 0.01111766 C206.04213641 0.00970842 239.44213531 0.01314702 272.84213553 0.01913507 C305.92964351 0.02505294 339.01715067 0.02890924 372.10465918 0.02998788 C373.64471728 0.0300395 373.64471728 0.0300395 375.21588767 0.03009216 C384.59294578 0.03040535 393.9700039 0.03069304 403.34706202 0.03095013 C426.65975505 0.03158962 449.97244807 0.03254899 473.28514109 0.03372533 C474.34687393 0.03377865 475.40860676 0.03383197 476.50251332 0.0338869 C528.17840858 0.03650986 579.85430331 0.04281801 631.5301982 0.04942567 C649.46800337 0.05171728 667.40580854 0.05399263 685.34361372 0.05620057 C687.01231861 0.056406 687.01231861 0.056406 688.71473472 0.05661557 C740.40860535 0.06295698 792.10247608 0.06668438 843.796347 0.06973537 C847.15141107 0.06993343 850.50647515 0.07013263 853.86153922 0.07033205 C876.09529829 0.0716518 898.32905735 0.07292646 920.56281642 0.07417091 C964.80433761 0.07664756 1009.04585877 0.07938925 1053.28737993 0.08231295 C1055.39438511 0.08245219 1057.50139029 0.08259125 1059.60839547 0.08273012 C1154.48857998 0.08898502 1249.36876409 0.09832353 1344.2489482 0.10899598 C1345.13756826 0.10909592 1346.02618831 0.10919585 1346.94173625 0.10929882 C1391.38650679 0.11429951 1435.83127731 0.11947606 1480.27604781 0.12486512 C1481.23491071 2.19474204 1482.19293395 4.26500793 1483.1506053 6.33543641 C1483.68419504 7.48827371 1484.21778477 8.641111 1484.76754389 9.82888276 C1486.60544796 13.84458291 1488.34794694 17.89213227 1490.04557906 21.96861512 C1490.36834318 22.73788331 1490.69110731 23.5071515 1491.02365218 24.29973085 C1492.04738388 26.74056871 1493.06804625 29.18267524 1494.08854781 31.62486512 C1495.50014283 34.99514592 1496.91325975 38.36478697 1498.32682906 41.73424012 C1498.84063628 42.95968538 1498.84063628 42.95968538 1499.36482344 44.2098871 C1502.48198708 51.635432 1505.65439852 59.03655498 1508.88859663 66.4119745 C1511.27604781 71.9104189 1511.27604781 71.9104189 1511.27604781 74.12486512 C1002.08604781 74.12486512 492.89604781 74.12486512 -31.72395219 74.12486512 C-31.04212003 70.71570428 -30.51438003 68.29838764 -29.22444048 65.22203309 C-28.91930528 64.48782136 -28.61417009 63.75360963 -28.29978838 62.99714906 C-27.96796556 62.21171724 -27.63614275 61.42628541 -27.29426469 60.61705262 C-26.94769823 59.78610078 -26.60113176 58.95514894 -26.24406328 58.09901674 C-25.1164888 55.39755256 -23.98274105 52.69872628 -22.84895219 49.99986512 C-21.2976545 46.2896863 -19.74922479 42.57831216 -18.20051469 38.86705262 C-17.81651506 37.94817262 -17.43251543 37.02929261 -17.03687944 36.08256776 C-14.72588717 30.54755448 -12.43804999 25.00398284 -10.18488969 19.44517762 C-9.92563707 18.80563142 -9.66638445 18.16608522 -9.39927568 17.50715883 C-8.21595156 14.58426922 -7.03699944 11.65966023 -5.86115923 8.73375184 C-5.2518355 7.22579042 -5.2518355 7.22579042 -4.63020219 5.68736512 C-4.28279985 4.82240419 -3.93539751 3.95744325 -3.57746782 3.06627137 C-2.30274473 0.16678682 -2.30274473 0.16678682 0 0 Z " fill="#026D39" transform="translate(31.723952194908634,1882.875134875765)"/>
<path d="M0 0 C0.66 0 1.32 0 2 0 C3.87121456 10.0458243 5.74179237 20.09176696 7.61175156 30.13782501 C8.52325354 35.03449051 9.43504084 39.93110259 10.34741211 44.8276062 C14.07648779 64.84106816 17.80240994 84.85488661 21.453125 104.8828125 C31.35783607 184.22025686 31.35783607 184.22025686 64.75 254.3984375 C66 256 66 256 66 258 C66.66 258 67.32 258 68 258 C68 258.66 68 259.32 68 260 C68.57621094 260.27070313 69.15242188 260.54140625 69.74609375 260.8203125 C72.01962393 262.0102711 73.98317563 263.37477718 76.0625 264.875 C95.25798809 277.7980708 121.32286372 275.94956581 143.3125 274.0625 C144.35488831 273.97421936 144.35488831 273.97421936 145.41833496 273.88415527 C170.06513764 271.74593432 194.58231377 268.05456685 219.0925293 264.74028015 C250.78828376 260.45545255 282.49469839 256.33889768 314.3125 253.0625 C315.35046722 252.95450073 316.38843445 252.84650146 317.45785522 252.73522949 C320.3840588 252.43295089 323.31093189 252.13860741 326.23828125 251.84765625 C327.08363434 251.76054886 327.92898743 251.67344147 328.79995728 251.58369446 C334.54761955 251.02815445 340.22729976 250.90672477 346 251 C343.21345568 253.96186966 340.5232764 255.31129776 336.7890625 256.9765625 C336.16214005 257.25873123 335.53521759 257.54089996 334.88929749 257.83161926 C332.80388064 258.76885867 330.71442807 259.69674179 328.625 260.625 C326.37897742 261.63199882 324.13409661 262.64151384 321.88926697 263.65116882 C320.32048734 264.35661279 318.75135818 265.06127991 317.18190002 265.76521301 C309.42617042 269.24668921 301.70828377 272.80843906 293.99093628 276.3739624 C277.37453491 284.04605116 260.67494847 291.51915357 243.93865967 298.92529297 C235.67187367 302.58488376 227.41537584 306.26743501 219.16183472 309.95678711 C217.5449822 310.67931453 215.92790588 311.40134137 214.31057739 312.12280273 C204.15993061 316.65093246 194.05456426 321.26231491 184 326 C182.81817139 326.55502197 181.63634277 327.11004395 180.41870117 327.68188477 C147.92154599 342.11418477 147.92154599 342.11418477 119.74609375 363.28515625 C118 365 118 365 116 365 C115.60941406 365.86044922 115.60941406 365.86044922 115.2109375 366.73828125 C113.91019437 369.16773375 112.38885419 371.0731857 110.625 373.1875 C102.27953965 383.78849018 99.92101377 395.70633638 101 409 C106.62453978 452.07107253 133.21025392 495.11176576 153.30175781 532.95947266 C156.66703532 539.31566386 159.90199743 545.73153488 163.07446289 552.18603516 C165.83186293 557.7637371 168.7181574 563.26703374 171.62890625 568.765625 C177.2229292 579.34873808 182.59536487 590.03804548 187.9375 600.75 C188.41734344 601.71024078 188.89718689 602.67048157 189.39157104 603.65982056 C195.29546091 615.47559097 201.17642756 627.2985498 206.76733398 639.26660156 C209.00078363 644.02880871 211.4143836 648.61671757 214.06225586 653.16333008 C215 655 215 655 215 657 C211.23141236 655.69346875 208.77178104 654.1635582 205.875 651.4375 C202.58591813 648.414367 199.23803429 645.54144435 195.75 642.75 C190.29141012 638.32494397 185.16310489 633.60164755 180.02734375 628.8125 C173.32575454 622.51870896 173.32575454 622.51870896 166 617 C166 616.34 166 615.68 166 615 C165.40980072 614.73135132 164.81960144 614.46270264 164.21151733 614.18591309 C161.98751064 612.99330265 160.44396426 611.75364693 158.61572266 610.02539062 C157.9681601 609.41594604 157.32059753 608.80650146 156.65341187 608.17858887 C155.95567657 607.51121704 155.25794128 606.84384521 154.5390625 606.15625 C153.79774078 605.45246216 153.05641907 604.74867432 152.29263306 604.02355957 C143.73722872 595.86042996 135.36324655 587.51387581 127.01220703 579.14257812 C124.3465319 576.47147392 121.67545838 573.8058499 119.00390625 571.140625 C117.28092878 569.4169877 115.55826102 567.69304075 113.8359375 565.96875 C113.05044525 565.18528198 112.264953 564.40181396 111.45565796 563.59460449 C106.76892696 558.88805498 102.326678 554.03781098 98 549 C96.54554483 547.39231627 95.08779105 545.78760285 93.625 544.1875 C88.89423907 538.93819023 84.43002948 533.50376055 80 528 C79.07461592 526.86686303 78.14881607 525.73406551 77.22265625 524.6015625 C65.14749301 509.76469775 54.09443171 494.24882804 44 478 C43.58685547 477.33742188 43.17371094 476.67484375 42.74804688 475.9921875 C20.57204001 440.14507656 6.67857417 401.73670816 1 360 C0.91548584 360.65669678 0.83097168 361.31339355 0.74389648 361.98999023 C-7.51588485 424.43869721 -37.59115653 480.2831742 -78 528 C-78.88069208 529.05428359 -79.76087364 530.10899379 -80.640625 531.1640625 C-85.87164523 537.41572475 -91.22491927 543.52189494 -96.7421875 549.5234375 C-98.6626858 551.63000484 -100.52681807 553.76789513 -102.375 555.9375 C-106.03057652 560.16426035 -110.00728502 564.06095133 -114.00146484 567.96459961 C-116.86094777 570.70603899 -116.86094777 570.70603899 -119 574 C-119.66 574 -120.32 574 -121 574 C-121.20625 574.53625 -121.4125 575.0725 -121.625 575.625 C-123.53250426 578.91978009 -126.04819384 581.59363628 -129 584 C-129.66 584 -130.32 584 -131 584 C-131.33 584.99 -131.66 585.98 -132 587 C-132.66 587 -133.32 587 -134 587 C-134.33 587.99 -134.66 588.98 -135 590 C-136.49609375 591.47265625 -136.49609375 591.47265625 -138.4375 593.0625 C-141.79158015 595.90056782 -144.91689575 598.86924344 -148 602 C-151.44436943 605.48090062 -154.95324895 608.77503619 -158.671875 611.95703125 C-161.8426753 614.73946172 -164.91693136 617.62106517 -168 620.5 C-172.92619348 625.09107828 -177.88468818 629.61938288 -183 634 C-184.06917493 634.92298655 -185.13816796 635.84618382 -186.20703125 636.76953125 C-192.69345446 642.36179799 -199.22768073 647.87620366 -205.890625 653.2578125 C-208.04104478 654.97777519 -208.04104478 654.97777519 -210 657 C-210.99 656.67 -211.98 656.34 -213 656 C-212.40481567 654.77204712 -212.40481567 654.77204712 -211.79760742 653.51928711 C-210.27065863 650.36823407 -208.74418466 647.21695197 -207.21807861 644.06549072 C-206.53083666 642.64643886 -205.84345865 641.22745288 -205.15594482 639.80853271 C-201.22985993 631.70478855 -197.32337452 623.59292089 -193.46728516 615.45556641 C-189.2205312 606.50015255 -184.79543524 597.68388775 -180.10546875 588.953125 C-178.04352965 585.10618152 -176.06899009 581.22017113 -174.125 577.3125 C-173.6448645 576.34739502 -173.6448645 576.34739502 -173.1550293 575.36279297 C-172.10208403 573.2424891 -171.05099041 571.12127349 -170 569 C-162.44030301 553.75735008 -154.71225152 538.62344976 -146.65625 523.63671875 C-142.53213016 515.94444164 -138.60941787 508.2044221 -134.93994141 500.28442383 C-132.79639412 495.66296124 -130.55898833 491.10319574 -128.25 486.5625 C-102.88668809 439.69885215 -102.88668809 439.69885215 -100.625 388.25 C-110.32262485 360.11660776 -139.18159386 347.02616203 -163.97021484 334.53027344 C-166.39044416 333.30787236 -168.80191609 332.0720226 -171.20703125 330.8203125 C-191.55669761 320.36502636 -212.78768568 311.52753206 -233.69235229 302.24920654 C-270.62664589 285.85500137 -307.39261233 269.11177051 -344 252 C-344 251.67 -344 251.34 -344 251 C-336.57533391 250.83699697 -329.33441301 251.32843379 -321.953125 252.1015625 C-320.80613129 252.21819748 -319.65913757 252.33483246 -318.47738647 252.45500183 C-314.73421473 252.83846364 -310.99205832 253.23082876 -307.25 253.625 C-305.95326355 253.76038177 -304.6565271 253.89576355 -303.32049561 254.0352478 C-278.81965363 256.59675092 -254.40782599 259.67524711 -230 263 C-185.71236008 269.28874984 -185.71236008 269.28874984 -141.25 274.0625 C-139.34021362 274.22528442 -139.34021362 274.22528442 -137.3918457 274.39135742 C-114.09656633 276.14843782 -87.63823 276.63003802 -68.55859375 261 C-40.31921151 234.24187131 -35.14813864 186.15746616 -27.86328125 149.7109375 C-27.67294123 148.76018845 -27.4826012 147.80943939 -27.2864933 146.82987976 C-22.50947784 122.91359921 -18.15066994 98.92183545 -13.80749512 74.92370605 C-12.35120983 66.88188022 -10.88859398 58.84120278 -9.42658997 50.80041504 C-8.65577716 46.56105257 -7.88669282 42.32138313 -7.1191864 38.0814209 C-4.81587932 25.37394931 -2.43834685 12.68225194 0 0 Z " fill="#026D39" transform="translate(770,0)"/>
<path d="M0 0 C438.24 0 876.48 0 1328 0 C1335.59 17.82 1343.18 35.64 1351 54 C1352.32 56.97 1353.64 59.94 1355 63 C1355 63.99 1355 64.98 1355 66 C898.94 66 442.88 66 -27 66 C-26.26096003 62.30480016 -25.55862976 59.61678721 -24.14575195 56.23242188 C-23.76477859 55.31376343 -23.38380524 54.39510498 -22.99128723 53.4486084 C-22.57779526 52.46525513 -22.16430328 51.48190186 -21.73828125 50.46875 C-21.31000534 49.44124634 -20.88172943 48.41374268 -20.44047546 47.35510254 C-19.5322517 45.17885284 -18.62177936 43.00354037 -17.70922852 40.82910156 C-16.33008962 37.54192486 -14.95839265 34.25172303 -13.58789062 30.9609375 C-12.70096509 28.83835598 -11.81360842 26.71595455 -10.92578125 24.59375 C-10.32072502 23.14301086 -10.32072502 23.14301086 -9.70344543 21.66296387 C-6.63012147 14.35117629 -3.3294307 7.21376651 0 0 Z " fill="#026D39" transform="translate(107,1700)"/>
<path d="M0 0 C0.77475074 0.00250888 1.54950148 0.00501775 2.34772952 0.00760266 C3.16773742 0.00632457 3.98774532 0.00504649 4.83260194 0.00372967 C7.62164565 0.00063056 10.41063433 0.00475191 13.19967629 0.00875333 C15.21154156 0.00801465 17.22340671 0.00683709 19.2352715 0.00525683 C24.81663408 0.00216623 30.39797867 0.00538067 35.97933992 0.00953496 C42.03136398 0.01295093 48.08338609 0.01060187 54.1354105 0.00895747 C64.75979767 0.00687735 75.38417862 0.00850578 86.00856472 0.01259568 C97.41376311 0.01696687 108.81895881 0.01916907 120.22415806 0.01869347 C120.943307 0.01866478 121.66245595 0.01863609 122.40339728 0.01860653 C126.07004675 0.01845016 129.73669622 0.01825821 133.40334569 0.01805369 C159.97405537 0.0166445 186.54476267 0.0200829 213.11547161 0.0260711 C239.43738514 0.03198908 265.75929764 0.03584529 292.08121182 0.03692391 C292.89799673 0.03695832 293.71478164 0.03699274 294.55631761 0.03702819 C302.01614546 0.03734138 309.4759733 0.03762907 316.93580115 0.03788616 C335.48194474 0.03852565 354.02808831 0.03948502 372.57423188 0.04066136 C373.84120238 0.04074134 373.84120238 0.04074134 375.13376825 0.04082293 C416.24329005 0.04344586 457.35281118 0.04975399 498.4623325 0.0563617 C512.73222996 0.05865332 527.00212741 0.06092866 541.27202488 0.0631366 C542.15701851 0.06327355 543.04201213 0.0634105 543.95382374 0.0635516 C585.07781044 0.06989307 626.20179726 0.07362043 667.32578432 0.0766714 C669.99485334 0.07686946 672.66392235 0.07706866 675.33299136 0.07726808 C693.02072025 0.07858783 710.70844914 0.07986249 728.39617803 0.08110694 C763.59181308 0.08358358 798.78744811 0.08632527 833.98308312 0.08924898 C835.65927541 0.08938822 837.3354677 0.08952728 839.01165999 0.08966615 C914.49147434 0.09592101 989.97128819 0.10525951 1065.45110203 0.11593201 C1066.15802023 0.11603195 1066.86493843 0.11613188 1067.59327839 0.11623485 C1102.95010179 0.12123554 1138.30692517 0.12641208 1173.66374852 0.13180115 C1174.78665951 2.52874627 1175.90860505 4.9261354 1177.03000523 7.32378724 C1177.34594246 7.99792381 1177.66187969 8.67206038 1177.98739077 9.36662534 C1180.29240925 14.29770928 1182.4869123 19.26177519 1184.55827977 24.29586365 C1184.87657246 25.06183869 1185.19486515 25.82781373 1185.52280308 26.61700013 C1186.51035966 28.99567323 1187.49337582 31.3761895 1188.47624852 33.75680115 C1189.14978152 35.38062151 1189.82360841 37.00432001 1190.49773289 38.6278949 C1192.22565666 42.79345744 1193.95015159 46.96032055 1195.66374852 51.13180115 C1196.25869114 52.51891297 1196.25869114 52.51891297 1196.86565281 53.93404725 C1197.66374852 56.13180115 1197.66374852 56.13180115 1197.66374852 59.13180115 C792.75374852 59.13180115 387.84374852 59.13180115 -29.33625148 59.13180115 C-28.21128154 52.38198148 -28.21128154 52.38198148 -26.74152492 48.9692035 C-26.41738613 48.20755891 -26.09324733 47.44591431 -25.75928615 46.66118958 C-25.40827846 45.85485078 -25.05727077 45.04851197 -24.69562648 44.21773865 C-24.33156704 43.36684663 -23.96750759 42.5159546 -23.59241604 41.63927796 C-22.42987073 38.92575132 -21.25832426 36.21622423 -20.08625148 33.50680115 C-19.31349648 31.70889025 -18.54135515 29.91071545 -17.76984523 28.1122699 C-16.6476931 25.49666088 -15.52479229 22.88140102 -14.39814113 20.26772645 C-11.94773103 14.58055571 -9.55325271 8.87454921 -7.22004055 3.13814881 C-5.57056673 -0.60643014 -3.90115592 0.01318251 0 0 Z " fill="#026D39" transform="translate(186.336251484463,1523.8681988453027)"/>
<path d="M0 0 C342.21 0 684.42 0 1037 0 C1040.09347827 6.18695655 1043.06010536 12.24109747 1045.69921875 18.60546875 C1046.02034134 19.37377518 1046.34146393 20.1420816 1046.6723175 20.93367004 C1047.34197229 22.53862755 1048.00986537 24.14432121 1048.67602539 25.75073242 C1049.69057238 28.19490175 1050.71309522 30.63562808 1051.73632812 33.07617188 C1052.39110461 34.64823782 1053.04541777 36.22049685 1053.69921875 37.79296875 C1054.0013176 38.51292526 1054.30341644 39.23288177 1054.6146698 39.97465515 C1054.89869156 40.66259659 1055.18271332 41.35053802 1055.4753418 42.05932617 C1055.84576851 42.95007088 1055.84576851 42.95007088 1056.22367859 43.85881042 C1057.30912695 46.85261002 1058.12515083 49.93802791 1059 53 C702.6 53 346.2 53 -21 53 C-19.87500177 46.25001061 -19.87500177 46.25001061 -18.37353516 42.75805664 C-18.04294098 41.98027359 -17.7123468 41.20249054 -17.37173462 40.40113831 C-16.83581192 39.16810219 -16.83581192 39.16810219 -16.2890625 37.91015625 C-15.73585831 36.61603065 -15.73585831 36.61603065 -15.17147827 35.29576111 C-13.99548177 32.54864882 -12.81040775 29.80556245 -11.625 27.0625 C-10.83533283 25.22226456 -10.04626416 23.38177218 -9.2578125 21.54101562 C-7.51051985 17.46494354 -5.75755219 13.39136939 -3.99942017 9.31996155 C-2.6619091 6.21518705 -1.33168965 3.10727585 0 0 Z " fill="#026D39" transform="translate(252,1354)"/>
<path d="M0 0 C296.67 0 593.34 0 899 0 C918 43.84615385 918 43.84615385 918 47 C608.79 47 299.58 47 -19 47 C-17.00720616 41.02161849 -14.9666277 35.31641597 -12.4609375 29.5703125 C-12.13461334 28.81330048 -11.80828918 28.05628845 -11.47207642 27.27633667 C-10.44319345 24.89103781 -9.40937222 22.50792292 -8.375 20.125 C-7.33436845 17.72028436 -6.29479819 15.31511746 -5.25650024 12.90939331 C-4.61366207 11.42070599 -3.96933418 9.93266084 -3.32333374 8.44534302 C-2.11406572 5.65079424 -0.96347395 2.89042185 0 0 Z " fill="#026D39" transform="translate(321,1189)"/>
<path d="M0 0 C0.95319759 0.00015598 1.90639519 0.00031196 2.88847756 0.00047267 C4.53454461 -0.00289827 4.53454461 -0.00289827 6.21386554 -0.00633731 C8.0485049 -0.00239679 8.0485049 -0.00239679 9.92020768 0.00162334 C11.21127902 0.00046949 12.50235035 -0.00068435 13.83254507 -0.00187316 C17.44880972 -0.00496241 21.06504656 -0.00175043 24.68130915 0.00240497 C28.60313003 0.00582204 32.52494792 0.00347166 36.44676935 0.00182748 C43.33101909 -0.00025229 50.2152602 0.00140776 57.09950894 0.00546569 C67.33624977 0.01148306 77.57298513 0.01180314 87.80972741 0.0109237 C105.02678786 0.00960754 122.24384448 0.01295976 139.46090382 0.01894111 C156.51640913 0.02485119 173.57191284 0.02870565 190.62741917 0.02979392 C191.68651937 0.02986266 192.74561957 0.0299314 193.83681372 0.03000222 C199.21509907 0.03034054 204.59338443 0.03064193 209.97166978 0.0309291 C248.10009554 0.03303143 286.2285192 0.03977413 324.35694378 0.04923171 C361.40609732 0.058411 398.45525028 0.06549713 435.50440472 0.06973952 C436.64573191 0.06987105 437.7870591 0.07000258 438.96297196 0.07013809 C450.42428988 0.07145657 461.8856078 0.07273239 473.34692573 0.07397695 C496.69649212 0.0765134 520.04605848 0.07933465 543.39562481 0.08232803 C544.46928106 0.08246532 545.54293731 0.08260261 546.64912859 0.08274406 C618.38791616 0.09195005 690.12670258 0.10779587 761.8654887 0.12467116 C762.83087693 2.20933184 763.79550337 4.2943453 764.75980633 6.3795082 C765.29706404 7.54056233 765.83432175 8.70161645 766.38786 9.89785403 C769.01391632 15.63258528 771.37038594 21.46742045 773.7404887 27.31217116 C774.23806683 28.52453445 774.73564495 29.73689773 775.2483012 30.98599929 C775.95212933 32.7155989 775.95212933 32.7155989 776.6701762 34.48013991 C777.09282757 35.51807693 777.51547894 36.55601394 777.95093792 37.62540359 C778.8654887 40.12467116 778.8654887 40.12467116 778.8654887 42.12467116 C515.5254887 42.12467116 252.1854887 42.12467116 -19.1345113 42.12467116 C-17.22936636 36.40923636 -15.30432945 30.83993745 -13.0329488 25.28092116 C-12.75101673 24.58575393 -12.46908466 23.89058669 -12.1786092 23.17435378 C-11.59008895 21.72526783 -11.00018529 20.27674299 -10.40892536 18.82877273 C-9.50087954 16.60351822 -8.59868722 14.3759508 -7.6970113 12.14810866 C-7.12183434 10.73390625 -6.54632586 9.31983863 -5.9704488 7.90592116 C-5.70066211 7.239355 -5.43087543 6.57278884 -5.1529134 5.8860237 C-2.80896804 0.1640644 -2.80896804 0.1640644 0 0 Z " fill="#026D39" transform="translate(391.13451129570603,1028.8753288351)"/>
<path d="M0 0 C209.55 0 419.1 0 635 0 C650 35 650 35 650 36 C430.88 36 211.76 36 -14 36 C-11.4749122 23.37456102 -4.97928847 11.87368789 0 0 Z " fill="#026D39" transform="translate(453,875)"/>
<path d="M0 0 C167.97 0 335.94 0 509 0 C521 29 521 29 521 32 C345.11 32 169.22 32 -12 32 C-11.23394196 27.40365178 -10.50790096 24.38296564 -8.75 20.234375 C-8.3065625 19.17992187 -7.863125 18.12546875 -7.40625 17.0390625 C-6.9421875 15.95367188 -6.478125 14.86828125 -6 13.75 C-5.5359375 12.64914062 -5.071875 11.54828125 -4.59375 10.4140625 C-1.24503968 2.49007937 -1.24503968 2.49007937 0 0 Z " fill="#026D39" transform="translate(516,726)"/>
<path d="M0 0 C0.57105469 0.45117188 1.14210938 0.90234375 1.73046875 1.3671875 C1.73046875 2.0271875 1.73046875 2.6871875 1.73046875 3.3671875 C2.30796875 3.5940625 2.88546875 3.8209375 3.48046875 4.0546875 C11.48992535 8.72687051 15.85991545 19.67051988 18.2565918 28.25073242 C21.11614356 41.02221839 18.92856684 54.85417327 12.15625 65.9453125 C3.26276486 78.13498444 -7.93461341 85.14526782 -22.6953125 87.921875 C-35.05458803 89.46171916 -47.95542998 86.62934374 -58.08203125 79.1796875 C-69.55320804 69.33502085 -76.26763739 59.47090702 -78.26953125 44.3671875 C-78.7308337 31.08167697 -76.00513673 18.77748444 -67.2109375 8.42578125 C-48.54249632 -11.3695276 -23.19036212 -14.23128741 0 0 Z " fill="#026D39" transform="translate(661.26953125,130.6328125)"/>
<path d="M0 0 C1.34660543 0.98205479 2.68161373 1.98037486 4 3 C5.010625 3.7425 6.02125 4.485 7.0625 5.25 C8.0215625 6.11625 8.0215625 6.11625 9 7 C9 7.66 9 8.32 9 9 C9.66 9 10.32 9 11 9 C20.29963554 20.42984763 23.28934152 33.62566554 22.22314453 48.02099609 C20.84049798 60.283286 13.85148025 71.47828727 4.4296875 79.21875 C-6.66623714 87.35338286 -19.26879322 91.32795194 -33.1015625 89.56640625 C-46.2316222 87.000559 -58.19699267 81.17780799 -66 70 C-73.52821282 57.92349194 -76.91967119 44.86557772 -73.94091797 30.74389648 C-70.67471417 17.40188164 -63.90338631 7.26435093 -52.3125 -0.25 C-35.9384798 -9.37160029 -16.08364686 -10.43979714 0 0 Z " fill="#026D39" transform="translate(937,129)"/>
</svg>
